<svg width="45" height="38" viewBox="0 0 45 38" fill="none" xmlns="http://www.w3.org/2000/svg">
<path d="M29.0625 22.1667H27.5813L27.0563 21.7392C28.9573 19.8772 30.0021 17.5001 30 15.0417C30 13.0062 29.2852 11.0164 27.946 9.32393C26.6069 7.63147 24.7034 6.31236 22.4765 5.53341C20.2495 4.75446 17.799 4.55065 15.4348 4.94776C13.0707 5.34486 10.8991 6.32505 9.19464 7.76436C7.49019 9.20368 6.32944 11.0375 5.85918 13.0339C5.38893 15.0303 5.63028 17.0996 6.55272 18.9801C7.47517 20.8607 9.03727 22.468 11.0415 23.5989C13.0457 24.7297 15.402 25.3333 17.8125 25.3333C20.8313 25.3333 23.6063 24.3992 25.7438 22.8475L26.25 23.2908V24.5417L35.625 32.4425L38.4188 30.0833L29.0625 22.1667ZM17.8125 22.1667C13.1438 22.1667 9.37501 18.9842 9.37501 15.0417C9.37501 11.0992 13.1438 7.91667 17.8125 7.91667C22.4813 7.91667 26.25 11.0992 26.25 15.0417C26.25 18.9842 22.4813 22.1667 17.8125 22.1667Z" fill="#5E5A5A"/>
</svg>
