<svg width="97" height="77" viewBox="0 0 97 77" fill="none" xmlns="http://www.w3.org/2000/svg">
<path d="M43.0922 58.1518H40.0943C38.3591 58.147 36.6564 57.7772 35.1597 57.0802C33.663 56.3832 32.4256 55.3839 31.5735 54.1839L20.2093 38.5L34.3986 18.8481H49.1063L35.9506 38.5216L36.1234 38.5986L42.2435 46.9219H50.9856L43.0922 58.1518ZM25.6292 25.3498L21.7795 20.032C21.5123 19.6723 21.1316 19.3739 20.6751 19.1664C20.2186 18.9588 19.7018 18.8491 19.1757 18.8481H6.0625L18.1875 35.6726L25.6292 25.3498ZM65.2931 22.8161C64.441 21.6156 63.2032 20.6159 61.7058 19.9188C60.2085 19.2218 58.5051 18.8524 56.7693 18.8481H53.1166L45.6052 30.0781H54.6231L60.8766 38.5L47.142 58.1518H62.468L76.7907 38.5L65.2931 22.8161ZM78.8125 41.3201L71.3253 51.5948L75.2144 56.968C75.4817 57.3277 75.8623 57.626 76.3188 57.8336C76.7754 58.0412 77.2921 58.1508 77.8183 58.1518H90.9375L78.8125 41.3201Z" fill="#A6F750"/>
</svg>
